<svg xmlns="http://www.w3.org/2000/svg" fill="#e5e5e5" viewBox="0 0 380 380"><defs><style>.cls-1{fill:#e5e5e5;}</style></defs><title>Asset 8</title><g id="Layer_2" data-name="Layer 2"><g id="CSS"><path className="cls-1" d="M190,0C85.07,0,0,85.07,0,190S85.07,380,190,380s190-85.07,190-190S294.93,0,190,0ZM177,170h25v25H177ZM91.89,277.54c-10.07-.19-20.21.56-29.45-4.65-7.81-4.41-11.41-11.54-11.93-20.21-.64-10.77-.89-21.56-1.45-32.34a33.13,33.13,0,0,0-1.33-7c-2-7.29-7-11.16-14.41-12-1-.12-2-.21-3.21-.33V179.42c.68-.17,1.32-.39,2-.49,11-1.76,16-6.94,17-18.19.51-5.88.47-11.8.72-17.7.22-5.33.34-10.68.78-16,.94-11.23,6.59-18.74,17.59-22.14,7.76-2.41,15.63-2,23.72-2.13v21.5l-7.9.46c-7.45.47-10.11,3.23-10.4,10.62-.33,8.4-.53,16.82-1.17,25.2-1.18,15.38-3.75,20-15.56,29.38.21.25.36.59.63.75,10.08,6,13.89,15.54,14.75,26.56.7,8.83,1,17.7,1.34,26.55.31,7.89,2.6,10.56,10.42,11.49,2.57.3,5.16.39,7.9.58Zm108.8-32.19c-1.6,12-10.29,18.38-21.33,22.68-1.7-3.64-3.26-7-4.94-10.59,9.31-2.91,14.26-8.89,14.25-19H176.72V213h25.73C201.92,223.91,202.1,234.74,200.69,245.35Zm150.09-44.26c-11.7.37-16.44,7.39-17.74,18.17-.78,6.51-.49,13.15-.8,19.73a148.33,148.33,0,0,1-1.12,15.94c-1.95,12.48-8.18,18.76-20.58,21.23a69.72,69.72,0,0,1-9.79,1.14c-3.39.2-6.8.05-10.77.05V255.86c3.23-.26,6.26-.45,9.26-.78,6.09-.65,8.89-3.58,9.2-9.72.44-8.62.79-17.24,1.2-25.87.58-12.2,4.42-22.7,15.86-29.38a18.79,18.79,0,0,0-1.66-1.35c-9.32-5.95-13.3-14.92-14.06-25.51-.66-9.17-1-18.37-1.35-27.56-.32-8-2.7-10.48-10.68-11l-7.59-.45V102.9c8.66-.12,17.2-.52,25.35,2.44,10.36,3.77,15.27,11.78,16,22.39.71,10.41.75,20.87,1.38,31.29.86,14.17,7.39,19.66,17.72,20a5.4,5.4,0,0,1,1.39.45v21.21A4.43,4.43,0,0,1,350.78,201.09Z"/></g></g></svg>