<svg xmlns="http://www.w3.org/2000/svg"  fill="#e5e5e5" viewBox="0 0 395.45 395.45"><defs><style>.cls-1{fill:#e5e5e5;}</style></defs><title>Asset 4</title><g id="Layer_2" data-name="Layer 2"><g id="Layer_3" data-name="Layer 3"><path class="cls-1" d="M133.45,198.78c1.7,7.94,11.22,16.43,18.34,17.48,10,1.46,17.91-3.2,22.19-12.42a34.42,34.42,0,0,0,.18-30.1c-3.42-7.61-9.35-11.42-17.72-11.73-8.22-.31-15.43,2.38-19.31,9.75-2.33,4.41-3.9,6.56-4.26,11.63-.25,3.65-.19,6.14-.19,6.14-.41-.19-1.11-.47-1.44-.62h0l1.44.62A55.6,55.6,0,0,0,133.45,198.78Z"/><path class="cls-1" d="M243.59,161.94c-12.88-.41-20.05,10.42-22,24.24,14.9,0,28-.24,42.84-.24C262.79,171,256.85,162.37,243.59,161.94Z"/><path class="cls-1" d="M197.72,0C88.52,0,0,88.52,0,197.72S88.52,395.45,197.72,395.45s197.73-88.52,197.73-197.73S306.93,0,197.72,0ZM37.83,213.49a25.58,25.58,0,0,0,20.93.16c7-3,9.77-10.31,12.12-17,.87,10.5-6.85,20.39-19.77,21.25C35.4,219,26.38,211.81,24,196.07c-1.55-10.07-.38-19.58,6.14-27.73,6.23-7.79,14.56-10.34,24.22-8,9.87,2.43,15,9.48,17.23,18.86.7,2.91.78,6,1.25,9.85h-47C25.83,199.8,29.51,210,37.83,213.49Zm83.9,4-22-28.25L78,217.37c-.4-.32-1.61-1.44-2-1.76,7.22-9.41,14.69-18.56,22.15-28.29-6.54-8.7-12.51-16.81-19-25.46.45-.35,1.56-1.15,2-1.49,6.33,8.39,12,16.06,18.72,24.93,6.69-8.76,12.72-16.32,19.14-24.71.43.31,1.22,1,1.66,1.32L101.3,187.37c4,5.14,7.82,9.95,11.47,14.66S120,211,123.6,215.65C123.17,216,122.16,217.13,121.73,217.48Zm9.51-29.16V161.57c.3,0,2,.11,2.33.09,0,4.49-.06,8.64-.16,13.2,0-.47,0,0-.27.24.69-1.26,1.35-2.54,2.07-3.79,4.51-7.85,11.36-11.84,20.36-11.76s16,4.26,19.93,12.38c5.51,11.4,5.44,23.08-.47,34.36-4.49,8.57-12,12.27-21.63,11.69-9.09-.55-15.54-4.93-19.23-13.27-.3-.67-.64-1.33-1-2-.29,0,.73.91.45.92,0,5.63.06,10.39.06,16,0,5.45-.15,10.9-.15,16.35h-2.33V188.91M212.63,162c-13.11,1.8-18,7.87-18.23,21.11-.18,10.08.07,22.12.07,31.69a19.18,19.18,0,0,0-2.56,1.94V161.56c.28,0,1.79-.23,2.06-.24,0,3.8-.28,7.94-.28,12.24h0c3.78-10,11.21-13.92,20.94-14,.12.39.23,1.8.35,2.19A20.59,20.59,0,0,1,212.63,162Zm22.59,52.59c6.69,2,13,1.77,19.31-1.44s9.12-9.84,11.4-16.08c.54,8.63-1.77,10.31-5.09,13.83-12.56,13.35-35.42,8.25-40.72-9.18-2.88-9.47-2.82-19,1.59-28.12,4.73-9.8,14.11-15.18,24.1-13.87,10.84,1.41,18.64,8.75,20.71,19.68.56,2.93.72,5.94,1.17,9.79H221.48C221.25,200.61,225.47,211.59,235.22,214.57Zm76,.58c-8.89,4.41-18.12,4.14-27-.18-6.2-3-9.25-10.59-7.22-17.38.32,1.25,1.37,2.32,1.47,3,1.16,8,4.62,12.6,14.19,14.28,6.1,1.07,12-.31,17.24-2.25,4.56-1.68,6.29-4.79,6.29-9.61s-2.48-8.08-6.2-9.52c-5-1.91-10.24-3.1-15.36-4.61-2.78-.81-5.73-1.46-8.47-2.39-4.82-1.63-7.57-6-8.08-11.07a12.58,12.58,0,0,1,5.2-12c7.16-5.43,21.61-5.19,28.54.44a12.79,12.79,0,0,1,4.48,12.89c-.31-.45-1.43-1.12-1.46-1.49-1.1-13-17.53-16.94-28.92-10.6-3.9,2.17-5.61,5.27-5.3,9.79.33,4.81,2.16,8.13,6.69,9.52,5.83,1.79,12.18,3.33,17.9,5.39,3.93,1.42,8.36,2.36,11.19,5.23C322,200.25,319,211.32,311.23,215.15Zm52.34.55a30.51,30.51,0,0,1-25.36-.41c-6.5-3-9.65-9.95-8.08-18.07,1.57,1.16,1.57,1.16,1.95,2a15.47,15.47,0,0,0,5.07,12.05c6.49,6.35,21.13,5.65,28.2-.09,6.61-5.35,6.47-14.08-1.19-18-4.28-2.18-9.22-3.08-13.87-4.51-3.65-1.12-7.41-1.94-11-3.32a12.45,12.45,0,0,1-3.24-21.5c7.14-5.89,22.19-5.85,29.24.16a12.43,12.43,0,0,1,4.29,12.46,41.41,41.41,0,0,0-4.19-8.49c-5.68-8.1-22.66-8.29-29-.63-4.93,6-2.18,13.45,5.3,16.07,5.61,2,9.82,3,15.54,4.67,1.9.56,4.86,1.41,6.73,2.07,5.67,2,9,6.28,9,12.3S369.21,213.35,363.57,215.7Z"/><path class="cls-1" d="M48.7,162.28c-12.87-.45-20.11,8.45-22.35,23.75l43.33,0C68.52,171.34,62,162.75,48.7,162.28Z"/></g></g></svg>