<svg xmlns="http://www.w3.org/2000/svg" fill="#e5e5e5" viewBox="0 0 380 380"><defs><style>.cls-1{fill:#5b7c7f;}</style></defs><title>Asset 1</title><g id="Layer_2" data-name="Layer 2"><g id="Handlebars"><path className="cls-1" d="M190,0C85.07,0,0,85.07,0,190S85.07,380,190,380s190-85.07,190-190S294.93,0,190,0ZM322.11,227.86c-19,4.45-37.26,2.37-55.06-5.58s-35.64-16-53.77-23.19a59.44,59.44,0,0,0-44.88,0c-17.83,7.09-35.38,14.93-52.89,22.82-16.79,7.57-34.09,10.18-52.2,6.7-21.92-4.21-32-16.73-31.82-39.27.08-8.75,3-16.21,9.94-21.84S56,161,64.07,164.74c6.79,3.16,9,8.59,6,15.49-1.06,2.45-2.82,4.6-4.68,7.54-.84-3-1-5.21-2-6.8S60.08,177,59,177.34c-2,.54-4.49,2.49-5.1,4.39-1.57,4.9.65,9.17,4.13,12.64,3.32,3.31,7.45,5,11.9,2.91a48.21,48.21,0,0,0,11-6.84c6.77-5.8,13.26-11.95,19.61-18.21,13.53-13.34,29.93-20,48.67-20.71,16.59-.65,29.87,6.11,39.72,19.51.61.83,1.17,1.69,1.83,2.64a6.21,6.21,0,0,0,.8-.75c12-17.63,28.74-23.79,49.51-20.59a71.94,71.94,0,0,1,40.37,20.06c5.93,5.79,11.89,11.57,18.16,17A60.48,60.48,0,0,0,310.91,197c4.26,2.24,8.54,1.23,12.11-2,3.86-3.44,6-7.71,5.12-13a5.77,5.77,0,0,0-5.13-5c-2.64-.36-4,1.72-4.78,3.9-.68,1.85-1.07,3.82-1.69,6.14-4-3.57-6.11-7.8-6-13.07.09-4.51,2.87-7.12,6.58-9,12.7-6.43,27.67.55,31.71,15.34A41.6,41.6,0,0,1,344,213.76C339.1,221.9,331,225.76,322.11,227.86Z"/></g></g></svg>