<svg xmlns="http://www.w3.org/2000/svg" fill="#e5e5e5" viewBox="0 0 380 380"><defs><style>.cls-1{fill:#5b7c7f;}</style></defs><title>Asset 4</title><g id="Layer_2" data-name="Layer 2"><g id="Heroku"><path className="cls-1" d="M190,0C85.07,0,0,85.07,0,190S85.07,380,190,380s190-85.07,190-190S294.93,0,190,0ZM159.5,255.23a.29.29,0,0,1-.07.12L131,283.83a2.27,2.27,0,0,1-.35.26s-.09,0-.18,0a1.05,1.05,0,0,1-.13-.35V226.28c.37-.21.52,0,.69.19s.49.48.73.72L158.54,254c.34.34.67.7,1,1A1.65,1.65,0,0,1,159.5,255.23Zm81.23,27.34c0,.63,0,1.26,0,2.05H212.75c0-.32-.11-.6-.12-.87,0-.49,0-1,0-1.48V183.62c0-.93,0-1.87.07-2.8a5.78,5.78,0,0,0-2.42-5.1,11.32,11.32,0,0,0-4.4-2,31.48,31.48,0,0,0-8.49-.72,91.79,91.79,0,0,0-16.91,2.34,259.3,259.3,0,0,0-30.53,8.88c-6.16,2.17-12.26,4.48-18.39,6.72l-1.47.54a4.17,4.17,0,0,1-.19-.73c0-.64,0-1.28,0-1.92q0-28.83-.08-57.66,0-16.51,0-33V96.32a7.11,7.11,0,0,1,1-.15c1.82,0,3.64,0,5.46,0L157.06,96a6.34,6.34,0,0,1,1.82.11c0,.31.08.59.09.87,0,.44,0,.88,0,1.32v58.78c.56.3,1,0,1.34-.16a165.72,165.72,0,0,1,17.07-5.1,134.75,134.75,0,0,1,17.4-3,81.29,81.29,0,0,1,13.69-.31,46,46,0,0,1,13.94,2.88c9.05,3.54,14.7,10.05,17.07,19.44a40.48,40.48,0,0,1,1.21,9c0,.83,0,1.67,0,2.51ZM251.14,97.18c-1.18,2.54-2.29,5.11-3.56,7.6a180.7,180.7,0,0,1-16.49,26c-.59.78-1.19,1.55-1.74,2.27-1.42.19-25,.29-30,.13-.23,0-.46,0-.81-.1a3.36,3.36,0,0,1,.28-.57c6-7.74,10.84-16.25,15.27-25,1.67-3.28,3.19-6.63,4.78-10l.64-1.34h31.7C251.5,96.58,251.27,96.89,251.14,97.18Z"/></g></g></svg>