<svg xmlns="http://www.w3.org/2000/svg" fill="#e5e5e5" viewBox="0 0 380 380"><defs><style>.cls-1{fill:#5b7c7f;}</style></defs><title>Asset 9</title><g id="Layer_2" data-name="Layer 2"><g id="HTML"><path className="cls-1" d="M190,0C85.07,0,0,85.07,0,190S85.07,380,190,380s190-85.07,190-190S294.93,0,190,0ZM128.21,255.3v3.63c-1.45-.72-2.45-1.17-3.4-1.69L32.74,207.05c-1-.54-2.08-.89-3.12-1.34V175.53l87.24-47.23c3.56-1.93,7.13-3.85,11.35-6.12V126c0,9.22-.09,18.44.06,27.66,0,2.54-.72,3.83-3.08,4.95-20.88,9.91-41.7,20-62.53,30-.83.4-1.64.84-2.86,1.46,1.09.6,1.83,1,2.61,1.44,20.88,10.41,41.74,20.86,62.68,31.16,2.44,1.21,3.24,2.59,3.19,5.26C128.1,237.06,128.21,246.18,128.21,255.3ZM229.38,107.64Q198,191.21,166.73,274.77c-.92,2.46-2,3.36-4.68,3.26-5.51-.22-11-.07-16.92-.07.44-1.38.71-2.36,1.07-3.3q31.44-84,62.83-168.06c1-2.58,2.12-3.52,4.9-3.39,5.53.25,11.07.07,16.94.07C230.31,104.92,229.88,106.3,229.38,107.64Zm120.28,98.59q-47.16,26-94.43,51.69c-.52.28-1.1.46-2,.84-.06-1.39-.15-2.48-.15-3.57,0-9,.1-18-.08-27-.05-2.76.72-4.22,3.31-5.48,20.78-10.13,41.47-20.43,62.18-30.68.93-.46,1.83-.95,3.2-1.66l-20-9.81c-15.39-7.56-30.81-15.08-46.16-22.73-1.06-.53-2.36-2-2.38-3-.17-10.26-.1-20.53-.09-30.8a13.58,13.58,0,0,1,.28-1.7c9.63,5.21,18.82,10.17,28,15.16q33.93,18.42,67.87,36.81a4,4,0,0,1,2.48,4.09c-.14,8.17,0,16.34-.14,24.51A4.6,4.6,0,0,1,349.66,206.23Z"/></g></g></svg>