<svg xmlns="http://www.w3.org/2000/svg" fill="#e5e5e5" viewBox="0 0 380 380"><defs><style>.cls-1{fill:#5b7c7f;}</style></defs><title>Asset 7</title><g id="Layer_2" data-name="Layer 2"><g id="JavaScript"><path className="cls-1" d="M190,0C85.07,0,0,85.07,0,190S85.07,380,190,380s190-85.07,190-190S294.93,0,190,0ZM293.72,310.34H87.43c-10.2,0-16.48-6.32-16.49-16.55v-206c0-10.63,6.17-16.84,16.76-16.84h206c10.39,0,16.63,6.26,16.63,16.68v206C310.34,304.07,304.1,310.34,293.72,310.34Z"/><path className="cls-1" d="M293.09,82.34H88.21c-4.85,0-5.87,1-5.87,5.78V293c0,5,1,5.94,6,5.94h204.6c5,0,6-1,6-5.92V88.14C298.94,83.35,297.92,82.34,293.09,82.34ZM202,253.62A52.59,52.59,0,0,1,200.54,266c-2.87,11.44-10.48,18.1-21.93,20.55-17.45,3.74-34.4-3.63-43.4-18.92-.51-.88-1-1.8-1.53-2.91l17.48-10.59a91,91,0,0,0,6.41,6.9c3.79,3.35,8.41,4.2,13.34,3.48a8.55,8.55,0,0,0,7.65-7.34,37.7,37.7,0,0,0,.65-7.35q.07-33.63,0-67.26v-3.19h22.67c0,.9.12,1.81.12,2.72C202,205.94,202.11,229.78,202,253.62Zm84.46,11.95c-3.13,11.48-11.32,17.7-22.38,20.36-13.68,3.28-26.81,2.14-38.57-6.4a39,39,0,0,1-12-14.82l16.86-11.25c2,2.67,3.7,5.28,5.7,7.66,5.45,6.48,12.45,8.37,20.52,6.38,4.17-1,7.17-3.59,8-8s-.4-8.52-4.35-10.95c-4.1-2.52-8.58-4.42-12.88-6.62-5.22-2.67-10.68-5-15.6-8.14-17.55-11.23-17.26-37.39-2.71-47.91,10.7-7.74,22.57-8.26,34.77-4.52,7.85,2.41,13.15,8,17.36,15.29l-16.76,10.79c-1.15-1.57-2.08-3-3.17-4.28-3.59-4.22-8.21-5.61-13.57-4.64-3.76.68-6.44,2.75-7.44,6.56s-.29,7.62,3,10a79.11,79.11,0,0,0,10.39,5.8c6.65,3.42,13.7,6.19,20,10.19C285.59,238.74,290.2,251.8,286.44,265.57Z"/></g></g></svg>