<svg xmlns="http://www.w3.org/2000/svg" fill="#e5e5e5" viewBox="0 0 380 380"><defs><style>.cls-1{fill:#5b7c7f;}</style></defs><title>Asset 6</title><g id="Layer_2" data-name="Layer 2"><g id="Node"><path className="cls-1" d="M190,0C85.07,0,0,85.07,0,190S85.07,380,190,380s190-85.07,190-190S294.93,0,190,0ZM96.66,203h0q0,10.41,0,20.83c0,2.83-1,3.41-3.42,2-5-2.85-9.91-5.76-14.93-8.53a4.56,4.56,0,0,1-2.59-4.53c.07-6,0-12.08,0-18.11A4.57,4.57,0,0,0,73.08,190c-1.89-.94-3.7-2-5.49-3.16a4.05,4.05,0,0,0-4.73,0C61,188,59,189.12,57.06,190.17a4.19,4.19,0,0,0-2.39,4.1c0,6.16,0,12.32,0,18.48A4.71,4.71,0,0,1,52,217.41C46.94,220.2,42,223.14,36.92,226c-2,1.16-3.13.57-3.14-1.72q-.11-21.1-.18-42.21A4.26,4.26,0,0,1,36,178q13.29-7.55,26.49-15.27a4.65,4.65,0,0,1,5.22,0q13.14,7.65,26.35,15.16a4.61,4.61,0,0,1,2.61,4.52C96.61,189.25,96.66,196.13,96.66,203Zm84.44-5.24c0,5.2,0,10.39,0,15.58a4.24,4.24,0,0,1-2.38,4.09q-13.43,7.7-26.78,15.48a4.36,4.36,0,0,1-4.89-.06q-13.19-7.73-26.47-15.3a4.68,4.68,0,0,1-2.62-4.52q.08-15.21,0-30.42a4.67,4.67,0,0,1,2.64-4.52q13.13-7.47,26.16-15.11a4.88,4.88,0,0,1,5.54,0q13.11,7.69,26.32,15.18a4.44,4.44,0,0,1,2.48,4.4C181,187.64,181.1,192.71,181.1,197.78Zm82,20.3q-13.5,7.72-27,15.56a4.15,4.15,0,0,1-4.58,0q-13.44-7.83-26.93-15.57a4.16,4.16,0,0,1-2.31-4q.06-15.57,0-31.15a4.14,4.14,0,0,1,2.24-4q13.59-7.77,27.12-15.63a4,4,0,0,1,4.41,0c1.91,1.15,3.85,2.27,5.79,3.37s2.51.65,2.51-1.47c0-13.71,0-27.41.05-41.12a9.92,9.92,0,0,1,1-2.89h1.45c2.21,1.31,4.4,2.66,6.63,3.93,3.15,1.79,6.3,3.56,9.49,5.28a4.18,4.18,0,0,1,2.41,4.07q-.06,39.75,0,79.5A4.28,4.28,0,0,1,263.11,218.08Zm83.23-24.71c-4.89,2.76-9.72,5.62-14.57,8.43-2.55,1.48-3.61.84-3.62-2.17,0-2,.12-4.12-.06-6.15a3.45,3.45,0,0,0-1.3-2.29,82.4,82.4,0,0,0-7.68-4.41,3.56,3.56,0,0,0-2.79,0,76,76,0,0,0-7.68,4.42,3.58,3.58,0,0,0-1.41,2.43c-.17,2.83,0,5.67-.09,8.51a3,3,0,0,0,1.81,3c8.6,4.88,17.17,9.82,25.75,14.74a17.35,17.35,0,0,1,1.56.93c1.3.94,1.35,2.27,0,3-5.62,3.17-11.24,6.33-17,9.31a4.21,4.21,0,0,1-3.39-.22c-9.17-5.1-18.26-10.33-27.38-15.53a3.76,3.76,0,0,1-2.06-3.55q0-15.84,0-31.7a3.77,3.77,0,0,1,2.07-3.53q13.72-7.9,27.43-15.83a3.73,3.73,0,0,1,4.08,0c9.07,5.28,18.18,10.5,27.2,15.86,1,.6,1.53,2,2.29,3v8A5.55,5.55,0,0,1,346.34,193.37Zm-34.49,3.14c0-.79,0-2,.46-2.31,1.78-1.2,3.74-2.88,5.65-2.9s3.89,1.55,5.42,2.91c.76.68.55,2.44.77,3.68-.23,1.3,0,3-.75,3.61-1.62,1.36-3.7,2.94-5.61,3s-4.09-1.47-5.35-3C311.54,200.41,311.91,198.21,311.85,196.51Z"/><path className="cls-1" d="M239.19,189.16c-3.94-2.24-6.71-2.4-10.65,0s-6.61,4.45-5,9c0,2.36-.66,4.72.18,6.22s3.38,2,4.88,3.23c3.66,3.11,6.77,2.38,10.75.08s5.26-4.58,5.28-9.09S243.25,191.46,239.19,189.16Z"/></g></g></svg>