<svg xmlns="http://www.w3.org/2000/svg" fill="#e5e5e5" viewBox="0 0 380 380"><defs><style>.cls-1{fill:#5b7c7f;}</style></defs><title>Asset 3</title><g id="Layer_2" data-name="Layer 2"><g id="PostgreSQL"><path className="cls-1" d="M248.74,145.49a3.78,3.78,0,0,0-1.31-.52,8.59,8.59,0,0,0-1.7-.21h-.47v0a11.56,11.56,0,0,0-1.52.13,10.42,10.42,0,0,0-3.53,1.09,3.53,3.53,0,0,0-1.1.86,1.58,1.58,0,0,0-.4,1.21,2.51,2.51,0,0,0,.59,1.2,5.89,5.89,0,0,0,1.23,1.11,5.58,5.58,0,0,0,3.88,1,6.88,6.88,0,0,0,4.7-3.43,2.26,2.26,0,0,0,.33-1.27v-.08A1.57,1.57,0,0,0,248.74,145.49Z"/><path className="cls-1" d="M291.87,212.11c-2.39-1.81-4.69-1.37-7.83-.71-12.48,2.57-18.73,1.59-21.48.46a6.93,6.93,0,0,1-1.49-.81,212.29,212.29,0,0,0,27.41-61.4,116,116,0,0,0,4.06-26.4c.11-7.53-.86-13.64-4.14-17.82-14.56-18.62-34.85-23.07-50.72-22.92v0a91.12,91.12,0,0,0-19.6,2.37,65,65,0,0,0-7,2l-.19.08A70.52,70.52,0,0,0,195,85c-11.3-.19-20.34,2.78-27.36,7.55C164,91.08,146,84.47,127,85.56c-10.57.6-21.42,3.77-29.33,12.15s-12.51,21.65-11.51,41.35c.22,4.63,1.8,14.25,4.48,26.17a316.59,316.59,0,0,0,11,38.48c4.63,12.57,9.94,23.69,16.59,30.15,3.33,3.23,7.25,5.41,11.58,5.22s8.44-2.73,12.16-7.18c8.84-10.64,16.09-18.3,17.51-19.8a27.86,27.86,0,0,0,12.58,3.39l0,.39c-2.46,2.91-3.85,4.9-5.08,5.89-1.45,1.14-3.82,2.1-10.63,3.5-3.73.77-6.21,1.62-8.09,3.15a5.8,5.8,0,0,0-2.06,3.13,5.33,5.33,0,0,0,.54,3.61,9.1,9.1,0,0,0,4.16,3.75,21.32,21.32,0,0,0,4.92,1.9,38.9,38.9,0,0,0,15.82.86,29,29,0,0,0,14.68-7.2q-.15,11.94.29,23.88c.21,5.19.53,9.8,1,13.57a35.91,35.91,0,0,0,1.76,8.76c1.27,3.15,3.38,8.3,8,12.18s11.78,6.16,21.6,4.05c7.93-1.71,13.82-4.32,18-8.65s6.36-10.13,7.6-17.41c1.57-9,4-28.84,5-38.87l.17.06a30.7,30.7,0,0,0,9.32,1.07c6.87-.07,14.62-1.39,20-3.91,6.11-2.83,10.87-6.26,13.28-9.88a6.73,6.73,0,0,0,1.23-3.18A5,5,0,0,0,291.87,212.11ZM237.73,88.85h1.39c14.4.11,31.58,4.25,44.28,20.49,1.62,2.06,2.89,7,2.79,13.81a111.25,111.25,0,0,1-3.85,24.9,206.93,206.93,0,0,1-25,57c-.36-.46-.7-.91-1.08-1.37,4.49-7.44,5.32-15,5-21.94-.36-7.35-1.83-14.09-1.64-19.82.25-7.91,2.3-13.53,2-21.82a.69.69,0,0,0,.05-.13,4.5,4.5,0,0,0,.12-1.36,13,13,0,0,0-.38-2.23,44,44,0,0,0-2.14-6.25A79.61,79.61,0,0,0,248.58,112a70.87,70.87,0,0,0-27-21.29A81.67,81.67,0,0,1,237.73,88.85Zm17.19,93.21c.25,5.38-.19,10.53-2.68,15.79a30.46,30.46,0,0,1-1.68-3.43,57.84,57.84,0,0,0-2.77-5.25c-1.26-2.26-2.82-5-4.43-8.14-3.21-6.18-6.64-13.62-8.29-20.27s-1.41-12,1.26-15.11c1.9-2.17,5.5-3.82,11.93-3.91a54.61,54.61,0,0,1,7,.46c-.14,6.22-1.73,11.47-2,19.52C253,168.61,254.59,175.41,254.92,182.06ZM137.11,227.81c-3,3.63-5.49,4.81-7.54,4.9s-4.3-.92-6.89-3.43c-5.15-5-10.57-15.61-15-27.79a310.89,310.89,0,0,1-10.81-37.68c-2.63-11.72-4.16-21.57-4.34-25.09-.93-18.6,3.33-29.83,9.8-36.68s15.5-9.62,25.06-10.17c1.19-.07,2.39-.11,3.59-.11h0c1.19,0,2.39,0,3.59.1a107.41,107.41,0,0,1,27.29,5.37,54.58,54.58,0,0,0-12.51,20,93.52,93.52,0,0,0-5.6,31.94h0v.11a.49.49,0,0,0,0,.17c0,2.1.36,5.45.47,10.48a118.57,118.57,0,0,1-1,18.7,33,33,0,0,0,11,29.8Q145.38,217.85,137.11,227.81Zm12.37-48.3a124.66,124.66,0,0,0,1.06-19.72c-.12-4.93-.39-8.28-.45-9.66l.21-.19a22.29,22.29,0,0,1,3.3-2.16,44.61,44.61,0,0,1,10.91-4.25,26.7,26.7,0,0,1,5.83-.7,13.73,13.73,0,0,1,5,.8c2.84,1.09,4.9,3,5.94,7.87,6.37,29.46-1.19,37-5,47.37a90.11,90.11,0,0,0-3.45,10.24C159,209.09,147.22,195.69,149.48,179.51Zm36.35,46.05c-4.61,6.46-10,8.95-15.2,9.84a32.94,32.94,0,0,1-13.2-.76A15.43,15.43,0,0,1,154,233.3a2.47,2.47,0,0,1-.66-.5,17.84,17.84,0,0,1,4.36-1.36c7.05-1.45,10.58-2.61,13.3-4.76s3.87-4.49,7.16-8.18c1.41-1.56,2.14-1.73,2.64-1.78h.2v0a6.22,6.22,0,0,1,1.93.57,7,7,0,0,1,3.13,3.72A4.87,4.87,0,0,1,185.83,225.56Zm59.8-9.57c-1.31,2.4-1.92,5.54-1.73,9.63-.41,5.42-3.86,34.23-5.57,44.17-1.15,6.63-2.93,11-5.92,14.08s-7.49,5.28-14.76,6.84c-8.38,1.8-13,0-16.17-2.69s-5-6.66-6.18-9.69a37.12,37.12,0,0,1-1.35-7.12c-.41-3.54-.73-8-.94-13.12q-.67-17.67-.13-35.37a3.05,3.05,0,0,0-.19-1.2,12.92,12.92,0,0,0-.67-2.69,12.45,12.45,0,0,0-6.66-7.38,10.4,10.4,0,0,0-5.11-1,8.81,8.81,0,0,0-1.22.25,92.53,92.53,0,0,1,3.13-9.59c3.22-8.65,12-20.11,5.29-50.93-1.39-6.41-5.22-10.64-9.86-12.44s-9.75-1.46-14.5-.37a48.9,48.9,0,0,0-12.57,4.89l-.12.07a83.59,83.59,0,0,1,4.85-22.84c2.76-7.33,7-14.5,13.25-19.73,6.08-5.06,14.11-8.44,25.29-8.47v0h1.09c23.79.39,39.18,12.44,48.69,24.6a73.83,73.83,0,0,1,9.85,16.69c.56,1.33.76,2.15,1.09,3.15-11.22-1.14-18.7.88-23,5.77-4.8,5.49-4.53,13.29-2.65,20.82s5.5,15.29,8.83,21.67c1.67,3.19,3.26,6,4.52,8.3q1.29,2.25,2.43,4.57a42.29,42.29,0,0,0,6.3,10.4c.8,1,1.57,2,2.3,3.08a16.37,16.37,0,0,0-2.43.88A11.12,11.12,0,0,0,245.63,216Zm30.79,7.43c-3.95,1.84-11.38,3.25-17.41,3.31a26.47,26.47,0,0,1-7.37-.76,4.88,4.88,0,0,1-1.4-.67c-.15-3.28.36-5.21,1-6.3a4.22,4.22,0,0,1,2.26-2c1-.43,2.11-.64,3.5-1.14h0a12.59,12.59,0,0,0,3.14,1.9c4.57,1.88,12,2.61,25.2-.12h0A37.23,37.23,0,0,1,276.42,223.42Z"/><path className="cls-1" d="M190,0C85.07,0,0,85.07,0,190S85.07,380,190,380s190-85.07,190-190S294.93,0,190,0ZM300.13,217.07a12.26,12.26,0,0,1-2.27,6.09c-3.8,5.72-9,9-15.9,12.14-7.78,3.61-17.09,4.83-25.67,4.44h-.19l-1.6-.14c-.19,1-.37,2-.52,3.18-.6,22.24-3.62,36-10.34,45.51s-17,12.77-25.07,14.49c-11.4,2.44-21.41-1.24-26.52-7.14s-6.41-12.58-6.88-13.87c-2.94-7.94-3.19-17-3.58-26.8-.12-3.09-.24-6.15-.35-9.27a34.55,34.55,0,0,1-8.28,2.55,44.49,44.49,0,0,1-18.43-.95,25.63,25.63,0,0,1-6.43-2.51,14.91,14.91,0,0,1-5.36-4.27,20.88,20.88,0,0,1-12.44,5.22c-6.61.28-12.21-3.05-16.28-7-8.14-7.91-13.36-19.55-18.12-32.51a321.35,321.35,0,0,1-11.29-39.29c-2.71-12.13-4.35-21.5-4.63-27.24-1-20.82,3.9-36.12,13.24-46s22-13.4,33.59-14c16.63-.91,32.41,3.65,40,6.29a54,54,0,0,1,28.45-7,103.45,103.45,0,0,1,16.18,1.57l.59-.19a95.92,95.92,0,0,1,26.07-3.82v0c.52,0,1,0,1.56,0,16.79.19,38.49,5.64,53.92,25.36,4.94,6.31,5.61,13.61,5.49,21.85a120.91,120.91,0,0,1-4.26,27.88,217.69,217.69,0,0,1-23.26,55.31,58.7,58.7,0,0,0,11.37-1.38c3.8-.79,7.34-2.41,13,1.86A12.38,12.38,0,0,1,300.13,217.07Z"/><path className="cls-1" d="M176.26,152.93a6.32,6.32,0,0,0,1.35-1.23,2.9,2.9,0,0,0,.71-1.46,2.11,2.11,0,0,0-.51-1.61,4.22,4.22,0,0,0-1.26-1,10.31,10.31,0,0,0-3.72-1.16,12.39,12.39,0,0,0-1.57-.12v0a8.13,8.13,0,0,0-2.9.38,2.4,2.4,0,0,0-1.81,1.84,2.68,2.68,0,0,0,.39,1.68,6.55,6.55,0,0,0,1.11,1.55,6.89,6.89,0,0,0,4,2.16A6.1,6.1,0,0,0,176.26,152.93Z"/></g></g></svg>