<svg xmlns="http://www.w3.org/2000/svg" fill="#e5e5e5" viewBox="0 0 380 380"><defs><style>.cls-1{fill:#5b7c7f;}</style></defs><title>Asset 5</title><g id="Layer_2" data-name="Layer 2"><g id="Express"><path className="cls-1" d="M126.71,226.54c7.87,1.75,16.22,3.15,24.91,4.2q-4.31-6.7-8.39-13.74t-7.71-14.13C132.09,210.92,129.13,218.85,126.71,226.54Z"/><path className="cls-1" d="M173.91,243.61c5.25,7,10.64,13.53,16.09,19.48,5.45-5.95,10.84-12.48,16.09-19.48-5.3.25-10.67.39-16.09.39S179.21,243.86,173.91,243.61Z"/><path className="cls-1" d="M206.09,136.39c-5.25-7-10.64-13.53-16.09-19.48-5.45,6-10.84,12.48-16.09,19.48,5.3-.25,10.67-.39,16.09-.39S200.79,136.14,206.09,136.39Z"/><path className="cls-1" d="M126.71,153.46c2.42,7.69,5.38,15.62,8.81,23.67q3.66-7.08,7.71-14.13t8.39-13.74C142.93,150.31,134.58,151.71,126.71,153.46Z"/><path className="cls-1" d="M253.29,226.54c-2.42-7.69-5.38-15.62-8.81-23.67-2.44,4.71-5,9.43-7.72,14.13s-5.51,9.27-8.38,13.74C237.07,229.69,245.42,228.29,253.29,226.54Z"/><path className="cls-1" d="M256.34,142.87c1.33-5.15,2.4-10.16,3.19-15,3.7-22.77.69-38.79-8.28-44A15.39,15.39,0,0,0,243.43,82c-9,0-21,5.78-34.4,16.74-3.78,3.09-7.59,6.53-11.38,10.25a280.27,280.27,0,0,1,22.74,28.38A278.52,278.52,0,0,1,256.34,142.87Z"/><path className="cls-1" d="M214.32,147.88c-7.93-.58-16.06-.88-24.32-.88s-16.39.3-24.32.88c-4.46,6.57-8.79,13.47-12.92,20.62s-7.94,14.35-11.39,21.5c3.45,7.15,7.26,14.35,11.39,21.5s8.46,14.05,12.92,20.62c7.93.58,16.06.88,24.32.88s16.39-.3,24.32-.88c4.46-6.57,8.79-13.47,12.92-20.62s7.94-14.35,11.39-21.5c-3.45-7.15-7.26-14.35-11.39-21.5S218.78,154.45,214.32,147.88ZM190,213.5A23.5,23.5,0,1,1,213.5,190,23.5,23.5,0,0,1,190,213.5Z"/><path className="cls-1" d="M228.38,149.26q4.31,6.7,8.38,13.74c2.72,4.7,5.28,9.42,7.72,14.13,3.43-8,6.39-16,8.81-23.67C245.42,151.71,237.07,150.31,228.38,149.26Z"/><path className="cls-1" d="M278.56,160.85c-4.57-1.73-9.45-3.31-14.58-4.74A278.79,278.79,0,0,1,250.78,190,278.79,278.79,0,0,1,264,223.89c5.13-1.43,10-3,14.58-4.74C300.13,211,312.5,200.35,312.5,190S300.13,169,278.56,160.85Z"/><path className="cls-1" d="M182.35,109c-3.79-3.72-7.6-7.16-11.38-10.25C157.55,87.77,145.53,82,136.57,82a15.39,15.39,0,0,0-7.82,1.92c-9,5.18-12,21.2-8.28,44,.79,4.83,1.86,9.84,3.19,15a278.52,278.52,0,0,1,36-5.51A280.27,280.27,0,0,1,182.35,109Z"/><path className="cls-1" d="M197.65,271c3.79,3.72,7.6,7.16,11.38,10.25,17.87,14.6,33.26,20,42.22,14.82s12-21.2,8.28-44c-.79-4.83-1.86-9.84-3.19-15a278.52,278.52,0,0,1-35.95,5.51A280.27,280.27,0,0,1,197.65,271Z"/><path className="cls-1" d="M190,0C85.07,0,0,85.07,0,190S85.07,380,190,380s190-85.07,190-190S294.93,0,190,0Zm92.46,229.44c-4.86,1.84-10,3.51-15.46,5,1.41,5.45,2.55,10.77,3.38,15.89,4.55,27.94-.29,47.56-13.63,55.26A25.85,25.85,0,0,1,243.58,309c-11.74,0-26-6.52-41.5-19.19-4-3.28-8.06-6.93-12.08-10.87-4,3.94-8.05,7.59-12.08,10.87-15.5,12.67-29.76,19.19-41.5,19.19a25.85,25.85,0,0,1-13.17-3.37c-13.34-7.7-18.18-27.32-13.63-55.26.83-5.12,2-10.44,3.38-15.89-5.43-1.51-10.6-3.18-15.46-5-26.46-10-41-24-41-39.44s14.58-29.41,41-39.44c4.86-1.84,10-3.51,15.46-5-1.41-5.45-2.55-10.77-3.38-15.89-4.55-27.94.29-47.56,13.63-55.26S156,72.3,177.92,90.21c4,3.28,8.06,6.93,12.08,10.87,4-3.94,8.05-7.59,12.08-10.87C224,72.3,243.41,66.68,256.75,74.39s18.18,27.32,13.63,55.26c-.83,5.12-2,10.44-3.38,15.89,5.43,1.51,10.6,3.18,15.46,5,26.46,10,41,24,41,39.44S308.92,219.41,282.46,229.44Z"/><path className="cls-1" d="M123.66,237.13c-1.33,5.15-2.4,10.16-3.19,15-3.7,22.77-.69,38.79,8.28,44s24.35-.23,42.22-14.82c3.78-3.09,7.59-6.53,11.38-10.25a280.27,280.27,0,0,1-22.74-28.38A278.52,278.52,0,0,1,123.66,237.13Z"/><path className="cls-1" d="M116,156.11c-5.13,1.43-10,3-14.58,4.74C79.87,169,67.5,179.65,67.5,190s12.37,21,33.94,29.15c4.57,1.73,9.45,3.31,14.58,4.74A280.33,280.33,0,0,1,129.21,190,280.33,280.33,0,0,1,116,156.11Z"/></g></g></svg>