<svg xmlns="http://www.w3.org/2000/svg" fill="#e5e5e5" viewBox="0 0 380 380"><defs><style>.cls-1{fill:#5b7c7f;}</style></defs><title>Asset 2</title><g id="Layer_2" data-name="Layer 2"><g id="Travis"><path className="cls-1" d="M159.21,208.82c.88,0,1.78-1.13,2.67-1.77l0-1c-.87-.54-1.82-1.6-2.57-1.47a3,3,0,0,0-2,2.13A2.93,2.93,0,0,0,159.21,208.82Z"/><path className="cls-1" d="M168.87,176.74c-.24,1.64-.45,3.09-.71,4.89l10.26-4.91v-.48Z"/><path className="cls-1" d="M139.62,230.81c8.7-1.84,17.38-3.82,26.09-5.63a3.17,3.17,0,0,0,2.6-2.26c2.47-6.33,5.07-12.6,7.5-18.94a5.6,5.6,0,0,1,5.86-4q8.67.09,17.36,0a5.64,5.64,0,0,1,5.88,4q3.61,9.39,7.53,18.67a3.49,3.49,0,0,0,2.24,1.85q15.09,2,30.23,3.79a4.8,4.8,0,0,0,3.13-.95q5.11-3.94,10-8.2a6.55,6.55,0,0,0,1.88-3.05c2.76-10.24,5.43-20.51,8.11-30.77.13-.51.17-1,.31-1.92-6.17-1.12-12.24-2.17-18.28-3.34a5.94,5.94,0,0,0-4.58,1,54.83,54.83,0,0,1-7,3.73c-12,5.32-24.79,7.92-37.74,9.77a4.65,4.65,0,0,1-5-2.32,4.76,4.76,0,0,1,.56-5.68c1.71-2.2,3.38-4.42,5.07-6.64a7.7,7.7,0,0,0-3.59.35,190.23,190.23,0,0,0-33.17,14c-2,1.07-4,1.49-5.94.08s-2.25-3.37-1.76-5.66c.68-3.18,1.15-6.4,1.74-9.85-.92.25-1.51.37-2.08.56-13.07,4.51-24.67,11.66-35.6,20a3.22,3.22,0,0,0-.78,2.59c1.12,6.78,2.32,13.54,3.64,20.29a3.93,3.93,0,0,0,1.79,2.37c3.67,2.07,7.42,4,11.2,5.86A4.73,4.73,0,0,0,139.62,230.81Zm78-19.61a25.11,25.11,0,0,1,1.86-9c2.19-4.94,7.28-5.36,10.71-1.13a17.63,17.63,0,0,1,3.59,13.62l4.51,1.88-.22.49c-4.35.44-8.69,1-13,1.28C219.65,218.61,217.44,216.59,217.65,211.2ZM150.06,217c.13-2.89,0-5.84.46-8.72a10.76,10.76,0,0,1,4.25-7.06c2.8-2.15,5.94-2,8.12.76,3.39,4.23,4.16,9.17,2.94,14.38-.49,2.09-2.29,2.9-4.29,3s-4.22,0-6.33.1c-3,.11-6,.29-9.47.47Z"/><path className="cls-1" d="M115,184.22a1.82,1.82,0,0,0-1.08.77c-2.52,4.33-5,8.69-7.59,13.24l24.22-17.5C125.1,182,120,183.06,115,184.22Z"/><path className="cls-1" d="M228.85,177.63c-4.19-.29-8.38-.6-12.58-.82a2.3,2.3,0,0,0-1.78.64c-1.14,1.65-2.1,3.42-3.13,5.14l.25.62L229,178.33Z"/><path className="cls-1" d="M223.93,207.62h1c.55-.94,1.6-1.92,1.52-2.8a3.16,3.16,0,0,0-2.19-2,1.83,1.83,0,0,0-2.09,2.34C222.41,206,223.33,206.79,223.93,207.62Z"/><path className="cls-1" d="M120.7,233.06a6,6,0,0,0-1-.6c-3.22-1.33-4.6-3.75-5.1-7.18-.86-5.93-2.16-11.8-3.32-17.93-2.56,1.35-3.57,3.09-2.71,5.68a7.78,7.78,0,0,1,.16,1.39c.71,6.15,1.81,12.21,4.72,17.77.45.87,1.33,2.09,2.08,2.14a30.82,30.82,0,0,0,5.64-.61A3.8,3.8,0,0,0,120.7,233.06Z"/><path className="cls-1" d="M275.77,207.74a31.7,31.7,0,0,0-3.25-1.75c-1.33,5-2.43,9.8-3.91,14.47a11.18,11.18,0,0,1-3,4.77c-4.44,3.94-9.14,7.59-13.66,11.43a6.49,6.49,0,0,1-5.38,1.63c-12.25-1.56-24.49-3.12-36.74-4.58a5.75,5.75,0,0,1-5.13-4.08c-2.34-6-4.85-12-7.17-18.06-.56-1.43-1.17-2.11-2.82-2-2.89.16-5.79.13-8.68,0a2.38,2.38,0,0,0-2.71,1.84c-2.39,6.19-4.93,12.31-7.35,18.49a5.63,5.63,0,0,1-4.4,3.72c-10.83,2.38-21.62,4.88-32.46,7.19a7.65,7.65,0,0,1-4.25-.59c-2.57-1.07-5-2.48-7.74-3.89a54.58,54.58,0,0,0,6.24,16.62c4.1,6.75,2.74,5.36,9.26,3.95,7.74-1.68,14.89-4.56,20.21-10.88a34.48,34.48,0,0,1,4.65-4.29c1.46-1.19,3.07-2.19,5-3.54,0-.1,0-.31,0-.54.1-2.74,1.61-4.59,4-5a4.91,4.91,0,0,1,5.36,3.58c1.48,4.43,4.45,6.9,8.36,7,3.48.07,6.44-2.32,8.19-6.64,1.24-3,3.2-4.39,5.82-4,2.46.4,3.82,2.23,4.05,5.38a43.43,43.43,0,0,1,4.31,1.56c3.52,1.69,7.06,3.36,10.45,5.28a25.31,25.31,0,0,0,14.33,3.3c5.2-.32,10.45.4,15.59-1.17a3.39,3.39,0,0,0,2.78-2.62c.91-3.47,2.08-6.87,3.13-10.31a5,5,0,0,1,4.54-3.79c2.4-.3,4.79-.74,7.2-.88a2.84,2.84,0,0,0,2.7-2.07c2.6-5.78,2.38-12.06,3.3-18.13A1.93,1.93,0,0,0,275.77,207.74Z"/><path className="cls-1" d="M190,0C85.07,0,0,85.07,0,190S85.07,380,190,380s190-85.07,190-190S294.93,0,190,0ZM290.8,190a12.9,12.9,0,0,1-8.93,7.58c-.87.22-1.71.6-2.69.94,1.73,1.1,3.34,2.06,4.88,3.1a5.12,5.12,0,0,1,2.41,4.81c-.77,9.66-1.47,19.33-5.73,28.31a6.06,6.06,0,0,1-5.34,3.89,35.4,35.4,0,0,1-4.66.48c-2.85-.16-4.19,1.08-4.26,4.05l1.44.22c3.27.54,5.25,3.8,3.64,6.67-5.72,10.19-12.18,19.88-21.12,27.6-4.05,3.49-9.31,4.2-14.23,5.69a15.72,15.72,0,0,0-4.92,2.39c-13.57,10.36-28.56,16.36-45.92,14.92-9.78-.81-18.88-4-27.58-8.49a8.11,8.11,0,0,0-3.95-.86A24.24,24.24,0,0,1,142,288.81c-11.29-5.35-20.13-13.61-27.58-23.48a4.49,4.49,0,0,1-.46-5.07,4.78,4.78,0,0,1,4.62-2.64c1,0,2,.16,3,.19s2,0,2.94,0c-1.91-4.6-3.78-9.11-5.77-13.88-1.46.12-3.23.24-5,.43a6.34,6.34,0,0,1-6.46-3.38,54.8,54.8,0,0,1-7.57-20c-.12-.76-.28-1.52-.53-2.89-3.85,4.17-7.38,8-10.88,11.82-2.13,2.34-4.89,2.73-7,.93s-2.24-4-.69-6.77l15.56-27.54c.34-.61.66-1.23,1-1.86-4.28-4.92-5.1-11.13-6.53-17.06-1.78-7.4-1.53-14.88-.32-22.36a9.42,9.42,0,0,1,5.09-7.41c3.13-1.6,6.18-3.34,9.38-4.78a5.2,5.2,0,0,0,2.93-3c6.62-16.17,15.94-30.47,29.67-41.51C157,82.79,179.32,77.27,204.06,81.3c20.89,3.41,38.88,12.34,53.32,28a92.48,92.48,0,0,1,18.36,30,5.48,5.48,0,0,0,3.42,3.39c3.51,1.47,6.87,3.33,10.29,5s4.89,4.43,5.55,7.93A55,55,0,0,1,290.8,190Z"/><path className="cls-1" d="M283.43,155.73c-5.42-2.52-10.86-5.07-16.49-7.06-4.31-1.53-8.91-2.26-13.39-3.32a4.8,4.8,0,0,1-3.83-5.15,4.69,4.69,0,0,1,4.74-4.28,11.53,11.53,0,0,1,2.54.36c2.51.57,5,1.19,7.76,1.85C250.28,104.28,217.81,89,186.89,89.68c-16.36.35-31,6.1-43.73,16.45-10.49,8.53-18.06,19.27-24,31.84,3.66-.82,6.83-1.56,10-2.23a4.53,4.53,0,0,1,5.42,3.85c.41,2.92-1.23,4.94-4.6,5.67-9.73,2.1-19.2,4.94-27.92,9.91-1.39.8-2.36,1.72-2.37,3.43,0,4.67-.39,9.38,0,14,.37,4.06,1.64,8,2.52,12h.68a56.78,56.78,0,0,1,3.79-6.34,8.09,8.09,0,0,1,3.91-2.91c23.35-6,47.2-8.28,71.22-8.92a351.8,351.8,0,0,1,51.53,2c13.71,1.64,27.32,4.14,40.94,6.45,4.46.75,5.59,3.05,4.43,7.51-.54,2.08-1.05,4.16-1.58,6.25l.57.53c1.39-1,3.4-1.62,4-2.94,4.3-8.71,5.92-17.91,3.8-27.53A4.81,4.81,0,0,0,283.43,155.73Zm-74-32.77H200.1c-.08-1.4-.15-2.85-.24-4.49h-4.55V147l4.52.24v9.29H180.92v-9.29l4.53-.24V118.29c-1.44.06-3.36-.41-4.16.33s-.55,2.71-.78,4.32h-9.27v-14h38.2Z"/><path className="cls-1" d="M236.5,257.71c-1.64,0-3.29-.16-4.92-.06a14.26,14.26,0,0,1-7.83-1.89c-3.44-1.84-7.22-3.1-10.5-5.16-3.67-2.32-7-2-10.77-.47-5.64,2.3-11.53,3.46-17.64,2.13-3.2-.69-6.41-1.41-9.53-2.41a3,3,0,0,0-3.5.81c-2.86,2.77-5.75,5.53-8.8,8.09a18.32,18.32,0,0,1-5.29,3.29c-8.92,3.33-17.84,6.84-27.83,5.89,5.32,5.69,11.1,10.62,18.62,12.95a12.9,12.9,0,0,0,5.51.53c7.36-1.12,14.54-3,20.92-7,3.89-2.48,7.7-5.08,11.48-7.7,3.33-2.32,4.65-2.33,8,.14,3,2.19,5.94,4.33,8.9,6.51a18.26,18.26,0,0,0,13.78,3.2c6.72-.94,13.36-2.49,20.05-3.63,9.71-1.66,13.68-9.68,19.1-16.51-3.57.51-6.71,1.17-9.87,1.37S239.79,257.75,236.5,257.71Z"/><path className="cls-1" d="M190.57,276l-18.94,11.55c12.59,5,25.6,5.16,38.3-.6-3.32-1.43-6.87-2.61-10.06-4.42A111.37,111.37,0,0,1,190.57,276Z"/></g></g></svg>